<?xml version="1.0"?>
<svg width="410" height="369" xmlns="http://www.w3.org/2000/svg" xmlns:svg="http://www.w3.org/2000/svg">
 <g class="layer">
  <title>Layer 1</title>
  <path d="m54.77,214.52c8.28,10.99 16.16,24.59 13.57,40.69c-4.49,28.2 -36.33,44.2 -47.91,71.09c-5.88,13.9 -4.89,29.6 1.4,40.5l324.86,0c4.19,-3.3 7.98,-7.3 11.27,-11.8c11.08,-15.1 15.87,-35.5 12.18,-52.19c-3.7,-16.6 -14.97,-28.6 -18.96,-45.1c-4.4,-18.4 0.99,-40.39 9.98,-59.39c8.98,-19.1 21.45,-36.1 32.83,-53.8c8.38,-12.99 16.67,-27.89 15.97,-42.49c-1,-20.7 -19.96,-31.2 -38.22,-30.5c-18.27,0.7 -36.83,9.2 -55.3,12.4c-18.46,3.2 -38.92,-0.5 -46.3,-18.1c-6.69,-15.7 -1.1,-38.09 -9.38,-52.59c-4.89,-8.6 -14.18,-12.8 -23.76,-13.2c-9.58,-0.4 -19.56,2.4 -29.34,5.9c-55.09,19.5 -107.58,58.89 -147.8,110.79c-13.68,17.59 -26.75,39.49 -24.66,60.39c1.7,15.4 11.18,26.4 19.57,37.4z" fill="#FFC432" id="svg_1"/>
  <path d="m38.4,366.2c0.2,-11.9 2.09,-23.9 5.49,-35.9c-1.5,0.6 -3,1.3 -4.49,2.1c-1,4.4 -1.8,8.9 -3.7,13.3c-0.1,0.3 -0.99,0.3 -0.99,0c-0.2,-3.7 0.39,-7.4 1.09,-11.2c-2.29,1.5 -4.39,3.2 -6.38,5.1c1.09,3.7 2.19,7.3 3.09,11c1,3.9 2.4,7.8 2.59,11.9c0,0.5 -0.99,0.8 -1.19,0.3c-2.3,-3.6 -3.4,-7.6 -4.89,-11.4c-1.1,-2.7 -2,-5.4 -3,-8.1c-2.39,3 -4.29,6.3 -5.59,9.8c4,4.1 7.19,8.5 9.98,13.1l7.99,0z" fill="#018EDE" id="svg_2"/>
  <path d="m44.59,366.2c0,-1.2 0,-2.3 0.1,-3.5c0.2,-6.5 0.69,-13.1 1.59,-19.7c0.5,-3.3 0.9,-6.6 1.7,-9.9c0.4,-1.49 0.7,-3.1 1.1,-4.6c-0.9,0.2 -1.8,0.5 -2.6,0.81c-0.2,0.5 -0.3,1 -0.4,1.59c-3.29,11.8 -5.09,23.6 -5.39,35.3l3.9,0z" fill="#A0DBDB" id="svg_3"/>
  <path d="m53.47,366.2c0.3,-12.9 -0.1,-25.7 -1,-38.5c-0.5,0.11 -1.1,0.2 -1.6,0.41c-0.2,2.19 -0.4,4.29 -0.7,6.49c-0.39,3.6 -0.79,7.1 -1.09,10.7c-0.6,7 -0.9,14 -0.8,20.9l5.19,0z" fill="#A0DBDB" id="svg_4"/>
  <path d="m87.3,366.2c4.69,-6.2 10.08,-12.2 16.07,-18c-0.4,-0.7 -0.8,-1.4 -1.2,-2c-1.4,1.6 -2.79,3.3 -4.59,4.6c-0.3,0.2 -0.9,0 -0.8,-0.2c0.6,-2 2.6,-4 4.19,-5.9l0.1,-0.1c-0.6,-0.8 -1.19,-1.6 -1.89,-2.3c-0.3,0.5 -0.6,0.9 -0.9,1.4c-2.2,3.5 -4.19,7.1 -6.69,10.5c-0.4,0.5 -1.59,0.5 -1.39,-0.1c1.29,-4.7 3.89,-9.5 6.78,-14.1c-1.3,-1.3 -2.79,-2.5 -4.29,-3.7c-3.49,10 -6.69,20 -9.88,30l4.49,0l0,-0.1z" fill="#018EDE" id="svg_5"/>
  <path d="m55.96,366.2l8.19,0c5.39,-12 11.77,-23.8 19.16,-35.5c-1.4,-0.6 -2.8,-1.1 -4.29,-1.6c-0.3,0.4 -0.5,0.8 -0.8,1.2c-2.7,4.1 -5.19,8.2 -7.49,12.4c-2.29,4.2 -4.09,8.6 -6.68,12.8c-0.4,0.6 -1.7,0.5 -1.6,-0.1c0.6,-4.3 2.89,-8.8 4.89,-13c2.1,-4.3 4.39,-8.6 7.09,-12.8c0.3,-0.5 0.6,-1 0.99,-1.5c-1.29,-0.3 -2.69,-0.6 -4.09,-0.79c-0.5,1.39 -0.8,2.79 -1.19,4.19c-0.1,0.6 -1.4,0.7 -1.5,0.1c-0.2,-1.5 0,-3.1 0.4,-4.6c-1.2,-0.1 -2.4,-0.19 -3.7,-0.3c-1.69,5.6 -2.99,11.3 -4.29,16.9c-0.2,0.7 -1.59,0.7 -1.59,0c0.1,-5.6 1.09,-11.3 2.69,-16.9c-2.49,0 -4.89,0.3 -7.28,0.61c0.1,1.29 0.2,2.69 0.3,3.99c0.79,11.6 0.99,23.2 0.79,34.9z" fill="#018EDE" id="svg_6"/>
  <path d="m107.46,366.2c0,-0.7 0.1,-1.4 0.1,-2.2c0,-0.7 0,-1.4 -0.1,-2.1c-1.7,1.4 -3.29,2.8 -4.99,4.3l4.99,0z" fill="#A0DBDB" id="svg_7"/>
  <path d="m98.38,366.2c2.69,-2.6 5.69,-5.2 8.68,-7.7c-0.2,-1.3 -0.5,-2.5 -0.9,-3.7c-0.8,0.8 -1.59,1.5 -2.39,2.3c-1.6,1.6 -3,3.6 -5.09,4.9c-0.3,0.1 -0.6,0 -0.6,-0.2c0.3,-1.8 2.3,-3.7 3.69,-5.3c1.2,-1.3 2.4,-2.6 3.7,-3.9c-0.2,-0.6 -0.4,-1.1 -0.7,-1.7c-4.99,4.9 -9.48,10 -13.58,15.2l7.19,0l0,0.1z" fill="#A0DBDB" id="svg_8"/>
  <path d="m28.32,366.2c-2.4,-3.9 -5.19,-7.7 -8.38,-11.3c-0.5,1.6 -0.8,3.2 -1.1,4.8c2.09,2 3.89,4.2 5.19,6.5l4.29,0z" fill="#A0DBDB" id="svg_9"/>
  <path d="m22.63,366.2c-1.3,-1.2 -2.69,-2.3 -3.99,-3.5c0,0.5 0,1 0,1.5c0,0.7 0,1.3 0.1,2l3.89,0z" fill="#A0DBDB" id="svg_10"/>
  <path d="m71.93,366.2c1,-2.5 2,-5.1 3.1,-7.6c2.19,-5.2 4.59,-10.3 7.08,-15.4c1.7,-3.4 3.2,-7 5.19,-10.5c-0.3,-0.2 -0.7,-0.4 -1,-0.6c-7.18,11.2 -13.37,22.6 -18.66,34.1l4.29,0z" fill="#A0DBDB" id="svg_11"/>
  <path d="m79.12,366.2c3.39,-10.7 6.78,-21.4 10.58,-32.1c-0.4,-0.2 -0.7,-0.4 -1.1,-0.6c-0.5,1.1 -1.1,2.1 -1.6,3.2c-1.4,2.9 -2.79,5.7 -4.09,8.6c-3.19,7 -6.09,14 -8.68,21l4.89,0l0,-0.1z" fill="#A0DBDB" id="svg_12"/>
  <path d="m116.34,366.2c0.1,-7.1 1.2,-14.2 3.3,-21.3c-0.9,0.4 -1.8,0.8 -2.6,1.2c-0.6,2.6 -1.1,5.3 -2.19,7.9c-0.1,0.2 -0.6,0.2 -0.6,0c-0.1,-2.2 0.2,-4.4 0.6,-6.6c-1.4,0.9 -2.6,1.9 -3.8,3c0.6,2.2 1.3,4.3 1.9,6.5c0.6,2.3 1.4,4.6 1.5,7c0,0.3 -0.6,0.5 -0.7,0.2c-1.3,-2.1 -2,-4.5 -2.9,-6.8c-0.69,-1.6 -1.19,-3.2 -1.69,-4.8c-1.4,1.8 -2.5,3.7 -3.3,5.8c2.3,2.4 4.3,5 5.89,7.8l4.59,0l0,0.1z" fill="#018EDE" id="svg_13"/>
  <path d="m120.04,366.2c0,-0.7 0,-1.4 0,-2.1c0.1,-3.9 0.4,-7.8 0.99,-11.7c0.3,-1.9 0.5,-3.9 1,-5.9c0.2,-0.9 0.4,-1.8 0.7,-2.7c-0.5,0.1 -1,0.3 -1.6,0.5c-0.1,0.3 -0.19,0.6 -0.3,0.9c-1.99,7 -2.99,14 -3.19,20.9l2.4,0l0,0.1z" fill="#A0DBDB" id="svg_14"/>
  <path d="m125.33,366.2c0.2,-7.6 0,-15.3 -0.6,-22.8c-0.3,0.1 -0.6,0.1 -0.9,0.2c-0.1,1.3 -0.3,2.6 -0.4,3.8c-0.3,2.1 -0.5,4.2 -0.7,6.4c-0.4,4.2 -0.5,8.3 -0.5,12.4l3.1,0z" fill="#A0DBDB" id="svg_15"/>
  <path d="m145.29,366.2c2.79,-3.7 5.98,-7.3 9.58,-10.7c-0.2,-0.4 -0.5,-0.8 -0.7,-1.2c-0.8,0.9 -1.6,1.9 -2.7,2.7c-0.2,0.1 -0.5,0 -0.5,-0.1c0.4,-1.2 1.5,-2.4 2.5,-3.5c0,0 0,0 0.1,-0.1c-0.3,-0.5 -0.7,-0.9 -1.1,-1.4c-0.2,0.3 -0.4,0.5 -0.5,0.8c-1.29,2.1 -2.49,4.2 -3.99,6.2c-0.2,0.3 -0.9,0.3 -0.8,-0.1c0.8,-2.8 2.3,-5.6 3.99,-8.4c-0.79,-0.8 -1.59,-1.5 -2.49,-2.2c-2.1,5.9 -3.99,11.9 -5.89,17.8l2.5,0l0,0.2z" fill="#018EDE" id="svg_16"/>
  <path d="m126.72,366.2l4.89,0c3.2,-7.1 6.99,-14.1 11.38,-21c-0.8,-0.4 -1.7,-0.7 -2.59,-1c-0.2,0.2 -0.3,0.5 -0.5,0.7c-1.6,2.4 -3.1,4.9 -4.4,7.4c-1.39,2.5 -2.39,5.1 -3.99,7.6c-0.2,0.4 -1,0.3 -0.89,-0.1c0.39,-2.6 1.69,-5.2 2.89,-7.7c1.2,-2.6 2.59,-5.1 4.19,-7.6c0.2,-0.3 0.4,-0.6 0.6,-0.9c-0.8,-0.2 -1.6,-0.4 -2.4,-0.5c-0.3,0.8 -0.49,1.6 -0.69,2.5c-0.1,0.3 -0.8,0.4 -0.9,0.1c-0.1,-0.9 0,-1.8 0.3,-2.7c-0.7,-0.1 -1.4,-0.1 -2.2,-0.2c-1,3.3 -1.79,6.7 -2.59,10c-0.1,0.4 -0.9,0.4 -0.9,0c0.1,-3.3 0.7,-6.7 1.59,-10c-1.49,0 -2.89,0.2 -4.29,0.4c0.1,0.8 0.1,1.6 0.2,2.4c0.3,6.8 0.5,13.7 0.3,20.6z" fill="#018EDE" id="svg_17"/>
  <path d="m157.36,366.2c0,-0.4 0,-0.9 0,-1.3c0,-0.4 0,-0.8 0,-1.2c-1,0.8 -1.99,1.7 -2.89,2.5l2.89,0z" fill="#A0DBDB" id="svg_18"/>
  <path d="m151.97,366.2c1.6,-1.6 3.4,-3.1 5.19,-4.6c-0.1,-0.7 -0.3,-1.5 -0.5,-2.2c-0.5,0.5 -1,0.9 -1.39,1.4c-0.9,0.9 -1.8,2.2 -3,2.9c-0.1,0.1 -0.4,0 -0.3,-0.1c0.2,-1.1 1.3,-2.2 2.2,-3.1c0.7,-0.8 1.39,-1.6 2.19,-2.3c-0.1,-0.3 -0.3,-0.7 -0.39,-1c-3,2.9 -5.59,5.9 -7.99,9l3.99,0z" fill="#A0DBDB" id="svg_19"/>
  <path d="m110.36,366.2c-1.4,-2.3 -3.1,-4.6 -5,-6.7c-0.29,0.9 -0.49,1.9 -0.59,2.8c1.19,1.2 2.29,2.5 3.09,3.9l2.5,0z" fill="#A0DBDB" id="svg_20"/>
  <path d="m106.96,366.2c-0.8,-0.7 -1.6,-1.4 -2.39,-2.1c0,0.3 0,0.6 0,0.9c0,0.4 0,0.8 0,1.2l2.39,0z" fill="#A0DBDB" id="svg_21"/>
  <path d="m136.3,366.2c0.6,-1.5 1.2,-3 1.8,-4.5c1.3,-3.1 2.69,-6.1 4.19,-9.2c1,-2 1.9,-4.2 3.1,-6.2c-0.2,-0.1 -0.4,-0.2 -0.6,-0.3c-4.2,6.6 -7.89,13.4 -11.08,20.2l2.59,0z" fill="#A0DBDB" id="svg_22"/>
  <path d="m140.5,366.2c1.99,-6.4 4.09,-12.7 6.28,-19c-0.2,-0.1 -0.4,-0.3 -0.6,-0.4c-0.3,0.6 -0.59,1.2 -0.99,1.9c-0.8,1.7 -1.6,3.4 -2.4,5.1c-1.89,4.1 -3.59,8.3 -5.19,12.5l2.9,0l0,-0.1z" fill="#A0DBDB" id="svg_23"/>
  <path d="m47.58,357.2l2.4,-1.5l12.27,0.2c0,0 2.2,2.7 2.2,9.9l-9.09,0l-7.78,-8.6z" fill="#F0F9F9" id="svg_24"/>
  <path d="m123.83,197.52c0,0 1.4,19.3 0.6,28.99c-1.4,17.2 -3.2,44.8 -7.39,61.9c0,24.5 -2.69,44.59 -1.7,67.59c-4.49,0.1 -7.78,-0.3 -12.27,-0.2c-1.6,-16.3 -5.29,-27.8 -7.98,-45.59c-0.9,-6 1.69,-15.2 3.59,-20.7c-3.1,-10.6 -6.49,-48.1 -7.59,-55.2c-1.69,-10.9 1.4,-21.49 3.3,-32.39l29.44,-4.4z" fill="#196567" id="svg_25"/>
  <path d="m112.05,204.92c-8.78,26.89 -19.36,64.39 -32.83,87.19c-1.1,24.5 -12.48,40.89 -17.07,63.89c-4.49,0.1 -7.78,-0.3 -12.27,-0.2c2.39,-16.3 6.58,-62.09 10.08,-67.69c1.39,-11.3 6.28,-53.6 6.98,-61.1c1,-10.89 3.99,-19.09 9.78,-25.09l35.33,3z" fill="#196567" id="svg_26"/>
  <path d="m124.53,190.82c-0.5,1 -0.4,2.1 -0.2,3.1c0.2,1.3 0.4,2.5 0.5,3.8c0.1,1.1 0.3,2.2 1.09,3c1,1.1 3,1.4 4.39,0.7c1.4,-0.7 3.6,-3 3.8,-4.5c0.2,-1.5 -1.4,-2 -2.1,-3.3c-0.6,-1.2 -1.7,-3.4 -3.09,-4.1c-1.4,-0.8 -3.7,-0.1 -4.39,1.3z" fill="#F7A491" id="svg_27"/>
  <path d="m129.72,185.62c1.29,-8.2 4.09,-11.2 7.48,-18.7c-5.89,-5.4 -11.87,-13.2 -16.76,-19.5c-3.7,-4.8 -7.19,-9.9 -8.59,-15.79c-1.49,-5.91 -0.6,-12.6 3.49,-17.1c16.07,13 27.65,27.49 36.23,46.59c3.3,7.3 -1.19,16.4 -4.59,23.6c-1.29,2.7 -2.89,5.3 -5.19,7.2c-2.29,1.9 -4.29,2.7 -7.18,1.8c-2.8,-0.7 -5.29,-5.1 -4.89,-8.1z" fill="#d4e2d4" id="svg_28"/>
  <path d="m86.2,110.53c-7.38,1 -9.48,2.1 -15.87,6c-1.09,0.7 -5.68,3.9 -5.78,5.19c-1.1,13.2 2.89,26.2 6.28,39.1c2.1,7.8 3.8,29.4 -2.09,52.1c14.87,6.09 40.92,10.99 55.79,4.9c3.79,-25.8 7.38,-57.8 1,-89c-1.7,-8.29 -8.29,-14.79 -16.77,-15.69l-22.56,-2.6z" fill="#d4e2d4" id="svg_29" transform="matrix(1 0 0 1 0 0)"/>
  <path d="m84.21,94.73c1.29,5.7 1.89,11.7 1.69,17.6c-0.6,-0.5 -2.39,0.2 -2.69,0.9c-0.3,0.7 -0.1,1.5 0.3,2.1c0.5,0.6 1.1,1 1.79,1.4c4.8,2.5 10.48,3.5 15.87,2.7c1,-0.1 2,-0.4 2.8,-0.9c0.8,-0.5 1.5,-1.5 1.5,-2.5c0,-1.1 -0.8,-2 -1.8,-2.5c-1,-0.5 -2.1,-0.7 -3.09,-0.8c-0.3,-4.4 -1.1,-8.5 -1.4,-12.9l-14.97,-5.1z" fill="#F7A491" id="svg_30"/>
  <path d="m96.28,110.43c1.4,0.8 2.8,1.4 4.29,2c-0.29,-4.3 -0.99,-8.3 -1.29,-12.6l-14.97,-5.1c0.2,1 0.4,2 0.6,3c0.49,3 2.19,5.7 4.59,7.7c2.09,1.8 4.19,3.6 6.78,5z" fill="#F47458" id="svg_31"/>
  <path d="m80.81,89.13c-2.59,-3.1 -3.69,-7.4 -2.99,-11.3c-0.9,-0.3 -1.9,-1.1 -2.2,-2c-0.3,-0.9 -0.1,-2 0.5,-2.8c-1.79,0.1 -3.49,-1.2 -3.99,-2.9c-0.5,-1.7 0,-3.6 1.2,-5c1.2,-1.3 2.99,-2 4.69,-2.1c0.1,-4.1 2,-8.2 5.29,-10.6c0.8,-0.6 1.7,-1.1 2.79,-1.3c1,-0.2 2.1,0.1 2.8,0.9c0.7,0.8 0.7,2.1 -0.1,2.8c4.69,-3.8 10.68,-5.9 16.67,-6.4c1.19,-0.1 2.39,-0.1 3.49,0.3c1.1,0.4 2.09,1.2 2.29,2.4c0.3,1.1 -0.5,2.5 -1.59,2.7c2.89,-0.8 5.89,-0.7 8.58,0.6c2.69,1.3 4.69,4.2 4.39,7.1c-0.3,2.4 -1.9,4.3 -3.59,5.9c-1.9,1.7 -4.09,3.2 -6.39,4.4c-2.2,1.1 -1.2,10 -3.59,10.5l-28.25,6.8z" fill="#196567" id="svg_32"/>
  <path d="m108.36,69.43c0.7,0.2 1.3,0.9 1.4,1.7c1.09,9.7 1.99,17.7 -0.4,27.1c-0.9,3.5 -2.6,7.2 -5.89,8.4c-3.19,1.2 -6.89,-0.3 -9.78,-2.1c-3.79,-2.4 -7.19,-5.5 -9.88,-9c-2.4,0.6 -4.19,-0.3 -5.49,-2.4c-1.1,-1.8 -1.6,-4.3 -0.4,-6.1c1.2,-1.8 4.29,-2.1 5.29,-0.2c0,-4 1.6,-6.2 3.59,-9.6c-0.7,-2.4 -1.2,-5.1 0.6,-6.9c0.5,-0.5 1.2,-0.9 1.9,-1.2c4.79,-2.1 13.37,-1.3 19.06,0.3z" fill="#F7A491" id="svg_33"/>
  <path d="m98.08,76.73c-2.8,-1.4 -5.99,-1.1 -8.48,0.8c-0.7,0.6 0.3,1.6 0.99,1c1.9,-1.5 4.5,-1.7 6.69,-0.6c0.9,0.5 1.6,-0.8 0.8,-1.2z" fill="#196567" id="svg_34"/>
  <path d="m110.56,76.43c-2,-1.6 -4.9,-1.4 -6.59,0.6c-0.6,0.7 0.4,1.7 1,1c1.09,-1.3 3.19,-1.7 4.59,-0.6c0.69,0.6 1.69,-0.4 1,-1z" fill="#196567" id="svg_35"/>
  <path d="m95.58,80.03c-0.1,-0.9 -1.49,-0.9 -1.49,0c0.1,0.9 0.1,1.9 0.2,2.8c0.1,0.9 1.49,0.9 1.49,0c0,-0.9 -0.1,-1.8 -0.2,-2.8z" fill="#196567" id="svg_36"/>
  <path d="m108.86,79.53c-0.1,-0.9 -1.5,-0.9 -1.5,0c0.1,0.9 0.1,1.9 0.2,2.8c0.1,0.9 1.5,0.9 1.5,0c-0.1,-1 -0.1,-1.9 -0.2,-2.8z" fill="#196567" id="svg_37"/>
  <path d="m100.08,96.33c-1.9,-0.2 -3.5,-1.2 -4.7,-2.6c-0.59,-0.7 -1.59,0.3 -0.99,1c1.49,1.8 3.49,2.8 5.69,3c0.89,0.1 0.89,-1.3 0,-1.4z" fill="#196567" id="svg_38"/>
  <path d="m98.38,99.83c-0.9,0 -1.8,-0.2 -2.6,-0.6c-0.79,-0.4 -1.59,0.8 -0.69,1.3c1.09,0.5 2.19,0.8 3.39,0.8c0.8,0 0.8,-1.5 -0.1,-1.5z" fill="#F47458" id="svg_39"/>
  <path d="m105.07,89.33c-0.8,0.8 -1.8,1.1 -3,1c-0.9,-0.1 -0.9,1.4 0,1.5c1.5,0.1 2.9,-0.4 3.99,-1.5c0.8,-0.6 -0.3,-1.6 -0.99,-1z" fill="#F47458" id="svg_40"/>
  <path d="m82.41,91.63c-1.3,-0.2 -1.3,-1.8 -0.2,-2.3c0.9,-0.4 0.1,-1.7 -0.7,-1.3c-1.1,0.5 -1.69,1.7 -1.49,2.9c0.19,1.2 1.29,2 2.49,2.1c0.8,0.2 0.8,-1.3 -0.1,-1.4z" fill="#F47458" id="svg_41"/>
  <path d="m102.07,107.53c-0.5,0.3 -0.9,0.7 -1.1,1.3c-0.2,0.5 0,1.2 0.5,1.5c0.5,0.3 1.2,0.1 1.8,-0.1c1,-0.3 2,0.1 2.59,0.8l3.3,-3.5c-2.2,-1.4 -5.09,-1.4 -7.09,0z" fill="#F7A491" id="svg_42"/>
  <path d="m103.47,111.83l-1.5,-1.6c-0.1,-0.2 -0.1,-0.4 0,-0.6l11.98,-11.1c0.2,-0.1 0.4,-0.1 0.6,0l1.49,1.6c0.1,0.2 0.1,0.4 0,0.6l-11.97,11.1c-0.2,0.1 -0.4,0.1 -0.6,0z" fill="#E65100" id="svg_43"/>
  <path d="m115.85,99.98l-1.15,-1.25l-12.62,11.66l1.15,1.25l12.62,-11.66z" fill="#F47458" id="svg_44"/>
  <path d="m117.34,97.53l-1.2,0.3l0.8,0.9l0.4,-1.2z" fill="#E53935" id="svg_45"/>
  <path d="m116.14,97.83l-1.79,0.4l1.99,2.2l0.6,-1.7l-0.8,-0.9z" fill="#F7A491" id="svg_46"/>
  <path d="m120.44,110.53c-0.9,-2.8 -3.2,-5.2 -5.99,-6c-0.7,-0.2 -1.1,-0.9 -1,-1.6c0.3,-2.7 0.5,-5.3 0.9,-8c0.1,-0.8 -0.8,-1.3 -1.5,-0.8c-0.3,0.3 -0.6,0.6 -0.8,0.9c-0.5,0.9 -0.7,1.9 -0.9,2.9c-0.59,3.2 -1.19,6.4 -1.79,9.6c-0.1,0 -0.1,-0.1 -0.2,-0.1l-3.3,3.5c0.4,0.4 0.6,0.9 0.6,1.6c0,1.6 0.2,3.2 0.7,4.7c0.9,2.6 3.1,4.9 5.79,4.99c2,0.11 3.99,-0.99 5.39,-2.49c2.19,-2.4 3.09,-6 2.1,-9.2z" fill="#F7A491" id="svg_47"/>
  <path d="m116.94,129.93c-1.69,10.59 -3.39,21.29 -6.78,31.59c-3.2,9.7 -10.98,27.4 -24.36,22c-9.58,-3.9 -13.47,-18.5 -15.76,-27.5c-2.7,-10.8 -3.7,-21.8 -4.8,-32.89c-0.1,-1.1 -1.79,-1.1 -1.69,0c1.2,12.89 2.39,25.89 6.19,38.29c2.69,8.7 7.08,21.9 17.26,24.3c10.78,2.5 18.27,-7.8 21.96,-16.4c5.29,-12.4 7.48,-25.8 9.58,-39c0.2,-1 -1.4,-1.39 -1.6,-0.39z" fill="#56A7A7" id="svg_48"/>
  <path d="m104.17,127.53c-7.69,12.59 -14.67,29.39 -17.57,43.79c-0.2,1.1 1.4,1.5 1.6,0.5c2.79,-14.3 9.78,-31 17.36,-43.39c0.7,-1.01 -0.79,-1.9 -1.39,-0.9z" fill="#56A7A7" id="svg_49"/>
  <path d="m86,135.92c-0.4,-1 -1.99,-0.6 -1.59,0.5c2.59,7.6 4.39,15.4 5.29,23.3c0.1,1.1 1.79,1.1 1.69,0c-0.9,-8.2 -2.69,-16.1 -5.39,-23.8z" fill="#56A7A7" id="svg_50"/>
  <path d="m108.36,118.63c-0.2,3.7 -2,9.69 -2,9.69c2.7,2.11 6.79,2.9 9.98,2c0.2,-3.6 0.3,-7.09 0.5,-10.69l-8.48,-1z" fill="#F7A491" id="svg_51"/>
  <path d="m127.62,192.32c1.3,-1.7 2.89,-6.3 4.29,-8c0.7,-0.9 3.5,-0.4 4.29,0c3,1.1 3.9,4.5 3.2,7.5c-0.3,1.4 -1.3,2.7 -2.6,3.4c-2.79,1.6 -6.49,4.7 -8.78,5.6l-0.4,-8.5z" fill="#F7A491" id="svg_52"/>
  <path d="m126.42,134.72c-0.2,-1.3 -1.89,-0.8 -1.59,0.6c4.79,27 4.19,54.9 -1.8,81.5c-0.3,1.3 1.3,1.9 1.6,0.6c6.09,-27 6.68,-55.3 1.79,-82.7z" fill="#56A7A7" id="svg_53"/>
  <path d="m128.52,189.72c-2.1,0 -4.19,0.3 -6.09,1.1c-1.5,0.6 -0.9,3 0.7,2.5c1.8,-0.7 3.59,-1 5.49,-1c1.5,0 1.5,-2.6 -0.1,-2.6z" fill="#F7A491" id="svg_54"/>
  <path d="m129.12,192.82c-2.1,0 -4.19,0.3 -6.09,1.1c-1.5,0.6 -0.9,3 0.7,2.5c1.8,-0.7 3.59,-1 5.49,-1c1.49,0 1.49,-2.6 -0.1,-2.6z" fill="#F7A491" id="svg_55"/>
  <path d="m129.92,196.12c-2.1,0 -4.2,0.3 -6.09,1.1c-1.5,0.6 -0.9,3 0.7,2.5c1.79,-0.7 3.59,-1 5.49,-1c1.49,-0.1 1.49,-2.6 -0.1,-2.6z" fill="#F7A491" id="svg_56"/>
  <path d="m130.02,199.12c-1.8,0 -3.6,0.3 -5.29,0.9c-1.3,0.5 -0.7,2.6 0.6,2.1c1.49,-0.6 3.09,-0.9 4.69,-0.9c1.49,0.1 1.49,-2.1 0,-2.1z" fill="#F7A491" id="svg_57"/>
  <path d="m56.56,365.8c0,-5 -4.09,-9.1 -9.08,-9.1c-4.99,0 -9.08,4.1 -9.08,9.1l18.16,0z" fill="#F0F9F9" id="svg_58"/>
  <path d="m134.01,365.8c0,-5 -4.09,-9.1 -9.08,-9.1c-4.99,0 -9.09,4.1 -9.09,9.1l18.17,0z" fill="#F0F9F9" id="svg_59"/>
  <path d="m124.83,356.7l-9.58,-0.8l-12.28,-0.2c0,0 -1.9,4.7 -1.9,10.1l20.66,0l3.1,-9.1z" fill="#F0F9F9" id="svg_60"/>
  <path d="m104.87,212.62c-10.78,-3.3 -20.16,-9.4 -27.65,-17.8c-0.7,-0.8 -1.8,0.4 -1.1,1.1c7.69,8.6 17.37,14.8 28.35,18.2c0.89,0.3 1.29,-1.2 0.4,-1.5z" fill="#56A7A7" id="svg_61"/>
  <path d="m123.43,217.52c-8.78,3.89 -18.56,2.89 -27.85,1.29c-9.08,-1.59 -17.96,-3.89 -26.74,-6.79c-1,-0.3 -1.4,1.2 -0.4,1.6c10.18,3.3 20.56,6 31.14,7.5c8.38,1.19 16.86,1.29 24.65,-2.21c0.99,-0.4 0.2,-1.79 -0.8,-1.39z" fill="#56A7A7" id="svg_62"/>
  <path d="m146.18,163.92c-2.79,-0.3 -5.49,0.4 -7.78,1.9c-0.9,0.6 -0.1,2 0.8,1.4c2.09,-1.4 4.49,-2 6.98,-1.7c1.1,0.1 1.1,-1.5 0,-1.6z" fill="#56A7A7" id="svg_63"/>
  <path d="m90,139.72c-0.7,2.3 -1.4,4.7 -2.2,7c-0.3,1 1.2,1.4 1.6,0.4c0.7,-2.3 1.39,-4.7 2.19,-7c0.2,-1 -1.29,-1.4 -1.59,-0.4z" fill="#56A7A7" id="svg_64"/>
  <path d="m128.62,140.12c-0.5,2.3 -1,4.6 -1.6,6.9c-0.2,1 1.3,1.4 1.6,0.4l1.6,-6.9c0.19,-1 -1.3,-1.4 -1.6,-0.4z" fill="#56A7A7" id="svg_65"/>
  <path d="m117.94,202.82c-6.09,3.2 -12.97,3.5 -19.36,0.8c-0.9,-0.4 -1.8,1 -0.8,1.4c6.89,3 14.27,2.8 20.96,-0.8c1,-0.5 0.1,-1.9 -0.8,-1.4z" fill="#56A7A7" id="svg_66"/>
  <path d="m78.82,286.41c-4.39,3.6 -8.78,7.3 -13.18,10.9c-0.79,0.7 0.3,1.8 1.1,1.1c4.39,-3.6 8.78,-7.3 13.18,-10.9c0.89,-0.7 -0.3,-1.8 -1.1,-1.1z" fill="#196567" id="svg_67"/>
  <path d="m68.84,299.31c-0.6,0.6 -1.3,1.3 -1.9,1.9c-0.7,0.7 0.4,1.9 1.1,1.1c0.6,-0.6 1.3,-1.3 1.9,-1.9c0.79,-0.7 -0.4,-1.8 -1.1,-1.1z" fill="#196567" id="svg_68"/>
  <path d="m61.35,350.2l-6.68,0.7c-1,0.1 -1,1.7 0,1.6l6.68,-0.7c1,-0.1 1,-1.7 0,-1.6z" fill="#196567" id="svg_69"/>
  <path d="m61.65,348.1l-2.99,0.5c-1,0.2 -0.6,1.7 0.4,1.6c1,-0.2 1.99,-0.4 2.99,-0.5c1,-0.3 0.6,-1.8 -0.4,-1.6z" fill="#196567" id="svg_70"/>
  <path d="m387.7,365.8l-385.83,0c-2.49,0 -2.49,3.2 0,3.2l385.83,0c2.5,0 2.5,-3.2 0,-3.2z" fill="#196567" id="svg_71"/>
  <path d="m303.17,366.2c0.2,-12.1 2.1,-24.4 5.59,-36.6c-1.6,0.6 -3.09,1.3 -4.49,2.1c-1,4.5 -1.9,9.1 -3.69,13.5c-0.1,0.3 -1,0.3 -1,0c-0.2,-3.7 0.4,-7.6 1.1,-11.4c-2.4,1.5 -4.49,3.3 -6.49,5.1c1.1,3.7 2.29,7.4 3.19,11.2c1,4 2.4,8 2.6,12.1c0,0.5 -1,0.8 -1.3,0.3c-2.3,-3.7 -3.39,-7.7 -4.99,-11.6c-1.1,-2.7 -2.1,-5.5 -2.99,-8.2c-2.4,3.1 -4.39,6.4 -5.69,10c3.99,4.2 7.38,8.7 10.18,13.3l7.98,0l0,0.2z" fill="#018EDE" id="svg_72"/>
  <path d="m309.46,366.2c0,-1.2 0,-2.4 0.1,-3.6c0.2,-6.6 0.7,-13.4 1.6,-20c0.49,-3.3 0.89,-6.7 1.69,-10.1c0.4,-1.6 0.8,-3.1 1.2,-4.7c-0.9,0.3 -1.8,0.5 -2.69,0.8c-0.2,0.5 -0.3,1.1 -0.5,1.6c-3.4,12 -5.19,24 -5.49,35.9l4.09,0l0,0.1z" fill="#A0DBDB" id="svg_73"/>
  <path d="m318.54,366.2c0.3,-13.1 -0.1,-26.2 -1.1,-39.2c-0.5,0.1 -1.09,0.2 -1.59,0.4c-0.2,2.2 -0.4,4.4 -0.7,6.6c-0.4,3.6 -0.8,7.3 -1.2,10.9c-0.6,7.1 -0.9,14.2 -0.8,21.3l5.39,0z" fill="#A0DBDB" id="svg_74"/>
  <path d="m352.97,366.2c4.79,-6.3 10.28,-12.5 16.37,-18.4c-0.4,-0.7 -0.8,-1.4 -1.3,-2.1c-1.4,1.6 -2.79,3.3 -4.69,4.7c-0.3,0.2 -0.9,0 -0.8,-0.2c0.7,-2 2.7,-4.1 4.3,-6l0.09,-0.1c-0.59,-0.8 -1.19,-1.6 -1.89,-2.4c-0.3,0.5 -0.6,0.9 -0.9,1.4c-2.29,3.6 -4.29,7.2 -6.89,10.7c-0.39,0.5 -1.59,0.5 -1.39,-0.1c1.39,-4.8 3.99,-9.7 6.88,-14.4c-1.29,-1.3 -2.79,-2.6 -4.39,-3.8c-3.49,10.2 -6.88,20.4 -10.08,30.6l4.69,0l0,0.1z" fill="#018EDE" id="svg_75"/>
  <path d="m321.04,366.2l8.38,0c5.49,-12.2 11.97,-24.3 19.56,-36.1c-1.4,-0.6 -2.89,-1.2 -4.39,-1.6c-0.3,0.4 -0.6,0.8 -0.8,1.2c-2.69,4.2 -5.29,8.4 -7.58,12.6c-2.3,4.3 -4.1,8.8 -6.89,13c-0.4,0.6 -1.7,0.5 -1.6,-0.2c0.7,-4.4 2.9,-8.9 4.99,-13.2c2.1,-4.4 4.49,-8.7 7.19,-13c0.3,-0.5 0.7,-1 1,-1.5c-1.4,-0.3 -2.8,-0.6 -4.2,-0.8c-0.49,1.4 -0.89,2.8 -1.19,4.3c-0.2,0.6 -1.5,0.7 -1.5,0.1c-0.2,-1.5 0,-3.1 0.4,-4.7c-1.2,-0.1 -2.5,-0.2 -3.79,-0.3c-1.7,5.7 -3.1,11.5 -4.39,17.2c-0.2,0.7 -1.6,0.7 -1.6,0c0.1,-5.7 1.1,-11.5 2.69,-17.3c-2.49,0 -4.99,0.3 -7.38,0.6c0.1,1.4 0.2,2.7 0.3,4.1c0.8,11.9 1,23.7 0.8,35.6z" fill="#018EDE" id="svg_76"/>
  <path d="m373.53,366.2c0,-0.7 0.1,-1.5 0.1,-2.2c0,-0.7 0,-1.4 -0.1,-2.1c-1.7,1.4 -3.39,2.9 -4.99,4.3l4.99,0z" fill="#A0DBDB" id="svg_77"/>
  <path d="m364.25,366.2c2.79,-2.7 5.79,-5.3 8.88,-7.8c-0.2,-1.3 -0.5,-2.5 -0.9,-3.8c-0.79,0.8 -1.59,1.6 -2.39,2.4c-1.6,1.6 -3,3.7 -5.19,5c-0.3,0.2 -0.6,0 -0.6,-0.2c0.3,-1.8 2.3,-3.8 3.69,-5.4c1.2,-1.3 2.5,-2.7 3.8,-4c-0.2,-0.6 -0.5,-1.2 -0.7,-1.7c-5.09,5 -9.68,10.2 -13.78,15.5l7.19,0z" fill="#A0DBDB" id="svg_78"/>
  <path d="m292.89,366.2c-2.39,-4 -5.29,-7.9 -8.48,-11.5c-0.5,1.6 -0.8,3.2 -1.1,4.9c2.1,2.1 3.99,4.3 5.29,6.6l4.29,0z" fill="#A0DBDB" id="svg_79"/>
  <path d="m287,366.2c-1.39,-1.2 -2.69,-2.4 -4.09,-3.5c0,0.5 0,1 0,1.5c0,0.7 0,1.3 0.1,2l3.99,0z" fill="#A0DBDB" id="svg_80"/>
  <path d="m337.4,366.2c1,-2.6 2.1,-5.2 3.2,-7.7c2.19,-5.3 4.69,-10.5 7.18,-15.7c1.7,-3.5 3.3,-7.1 5.29,-10.7c-0.3,-0.2 -0.7,-0.4 -1,-0.6c-7.28,11.4 -13.57,23 -18.96,34.7l4.29,0z" fill="#A0DBDB" id="svg_81"/>
  <path d="m344.69,366.2c3.39,-10.9 6.99,-21.8 10.78,-32.7c-0.4,-0.2 -0.7,-0.4 -1.1,-0.7c-0.6,1.1 -1.1,2.1 -1.6,3.2c-1.39,2.9 -2.79,5.8 -4.19,8.7c-3.29,7.1 -6.19,14.2 -8.88,21.4l4.99,0l0,0.1z" fill="#A0DBDB" id="svg_82"/>
  <path d="m334.41,39.43l-33.43,0l-8.69,-17.89l-27.94,0l-7.39,17.89l-35.93,0l0.8,24l0.2,5.4l115.77,0l-3.39,-29.4zm-59.68,-9.59c0.7,-0.8 1.89,-1.2 2.99,-1.3c1.1,0 2.3,0.5 3.1,1.3c0.79,0.8 1.29,1.89 1.39,2.99l0,0.3c0,1.2 -0.4,2.2 -1.2,3c-0.69,0.8 -1.89,1.2 -2.99,1.3c-1.1,0 -2.29,-0.5 -3.09,-1.3c-0.8,-0.8 -1.3,-1.9 -1.4,-3l0,-0.3c0,-1.2 0.5,-2.19 1.2,-2.99z" fill="#196567" id="svg_83"/>
  <path d="m175.43,52.13l-39.83,300.37l3.8,3.8l205.09,0l22.65,-190.38l13.48,-113.79l-3.69,-3.7l-201.5,3.7z" fill="#196567" id="svg_84"/>
  <path d="m145.39,270.01l-9.79,82.59l205.2,0l22.55,-190.38c-73.25,28.9 -143.51,63.5 -215.27,106.29c-0.9,0.4 -1.8,0.9 -2.69,1.5z" fill="#196567" id="svg_85"/>
  <path d="m171.73,48.43l-26.34,221.58c0.89,-0.5 1.79,-1.1 2.69,-1.6c71.76,-42.69 142.12,-77.39 215.27,-106.29l13.47,-113.79l-205.09,0l0,0.1z" fill="#56A7A7" id="svg_86"/>
  <path d="m329.72,340.9l-180.24,0l33.33,-280.87l180.24,0l-33.33,280.87z" fill="#FDFFFE" id="svg_87"/>
  <path d="m297.38,39.43l-5.89,-17.89l-27.94,0l-10.18,17.89l-35.93,0l-2.79,24c39.42,-11.9 79.04,-18.1 118.46,-22.4l0.2,-1.6l-35.93,0zm-17.76,-6.3c-0.1,1.2 -0.7,2.2 -1.6,3c-0.9,0.8 -2.09,1.2 -3.19,1.3c-1.1,0 -2.2,-0.5 -2.9,-1.3c-0.69,-0.8 -0.99,-1.9 -0.89,-3l0,-0.3c0.09,-1.2 0.69,-2.19 1.59,-2.99c0.9,-0.8 2.1,-1.2 3.2,-1.3c1.09,0 2.19,0.5 2.89,1.3c0.7,0.8 1,1.89 0.9,2.99l0,0.3z" fill="#A0DBDB" id="svg_88"/>
  <path d="m214.65,63.43l-0.6,5.4l115.77,0l3.29,-27.8c-39.52,4.2 -79.04,10.4 -118.46,22.4z" fill="#A0DBDB" id="svg_89"/>
  <path d="m303.57,91.53l-111.98,0c-2.39,0 -2.39,3.7 0,3.7l112.08,0c2.4,0 2.4,-3.7 -0.1,-3.7z" fill="#196567" id="svg_90"/>
  <path d="m348.78,103.13l2.1,-17.6c0.2,-1.7 -1.1,-3.2 -2.9,-3.2l-24.45,0c-1.5,0 -2.69,1.1 -2.89,2.6l-2.1,17.6c-0.2,1.7 1.1,3.2 2.9,3.2l24.45,0c1.49,-0.1 2.69,-1.2 2.89,-2.6z" fill="#FDFFFE" id="svg_91" stroke="#196567" stroke-miterlimit="10"/>
  <path d="m297.48,145.22l-112.07,0c-2.4,0 -2.4,3.7 0,3.7l112.07,0c2.4,0.1 2.4,-3.7 0,-3.7z" fill="#196567" id="svg_92"/>
  <path d="m342.59,156.82l2.1,-17.6c0.2,-1.7 -1.1,-3.2 -2.89,-3.2l-24.46,0c-1.49,0 -2.69,1.1 -2.89,2.6l-2.1,17.6c-0.2,1.7 1.1,3.2 2.9,3.2l24.55,0c1.4,-0.1 2.69,-1.2 2.79,-2.6z" fill="#FDFFFE" id="svg_93" stroke="#196567" stroke-miterlimit="10"/>
  <path d="m291.3,198.92l-111.98,0c-2.4,0 -2.4,3.7 0,3.7l112.07,0c2.3,0.1 2.3,-3.7 -0.09,-3.7z" fill="#196567" id="svg_94"/>
  <path d="m336.5,210.52l2.1,-17.6c0.2,-1.7 -1.1,-3.2 -2.89,-3.2l-24.46,0c-1.49,0 -2.69,1.1 -2.89,2.6l-2.1,17.6c-0.19,1.7 1.1,3.2 2.9,3.2l24.45,0c1.5,-0.1 2.7,-1.2 2.89,-2.6z" fill="#FDFFFE" id="svg_95" stroke="#196567" stroke-miterlimit="10"/>
  <path d="m285.21,252.61l-112.08,0c-2.39,0 -2.39,3.7 0,3.7l112.08,0c2.39,0.1 2.39,-3.7 0,-3.7z" fill="#196567" id="svg_96"/>
  <path d="m330.32,264.21l2.09,-17.6c0.2,-1.7 -1.1,-3.2 -2.89,-3.2l-24.45,0c-1.5,0 -2.7,1.1 -2.9,2.6l-2.09,17.6c-0.2,1.7 1.1,3.2 2.89,3.2l24.45,0c1.5,-0.1 2.8,-1.2 2.9,-2.6z" fill="#FDFFFE" id="svg_97" stroke="#196567" stroke-miterlimit="10"/>
  <path d="m279.02,306.31l-111.98,0c-2.39,0 -2.39,3.7 0,3.7l112.08,0c2.3,0.1 2.3,-3.7 -0.1,-3.7z" fill="#196567" id="svg_98"/>
  <path d="m324.23,317.9l2.1,-17.59c0.19,-1.7 -1.1,-3.2 -2.9,-3.2l-24.45,0c-1.5,0 -2.69,1.1 -2.89,2.6l-2.1,17.6c-0.2,1.69 1.1,3.19 2.89,3.19l24.46,0c1.49,-0.1 2.69,-1.1 2.89,-2.6z" fill="#FDFFFE" id="svg_99" stroke="#196567" stroke-miterlimit="10"/>
  <path d="m346.98,75.83c-3.29,4.3 -6.48,8.6 -9.78,12.9c-1.39,1.8 -2.69,4.1 -4.39,5.7c-1.3,1.3 -1.3,2 -3.19,1c-1.1,-0.6 -2.4,-2.2 -3.19,-3c-1.7,-1.7 -4.4,1 -2.6,2.6c3.59,3.4 6.59,8.4 10.58,3.4c5.39,-6.8 10.48,-13.9 15.77,-20.8c1.39,-1.8 -1.8,-3.7 -3.2,-1.8z" fill="#E53935" id="svg_100"/>
  <path d="m336.4,181.32c-3.29,4.3 -6.48,8.6 -9.77,12.9c-1.4,1.8 -2.7,4.1 -4.4,5.7c-1.29,1.3 -1.29,2 -3.19,1c-1.1,-0.5 -2.4,-2.2 -3.19,-3c-1.7,-1.7 -4.4,1 -2.6,2.6c3.59,3.4 6.59,8.4 10.58,3.4c5.39,-6.8 10.48,-13.9 15.77,-20.8c1.5,-1.8 -1.8,-3.7 -3.2,-1.8z" fill="#E53935" id="svg_101"/>
  <path d="m185.91,366.2c0.19,-8.4 1.49,-16.9 3.89,-25.3c-1.1,0.4 -2.1,0.9 -3.1,1.5c-0.7,3.1 -1.29,6.3 -2.59,9.4c-0.1,0.2 -0.7,0.2 -0.7,0c-0.1,-2.6 0.3,-5.2 0.8,-7.9c-1.6,1.1 -3.1,2.3 -4.49,3.6c0.79,2.6 1.59,5.2 2.19,7.8c0.7,2.8 1.7,5.5 1.8,8.4c0,0.3 -0.7,0.6 -0.9,0.2c-1.6,-2.6 -2.4,-5.3 -3.49,-8c-0.8,-1.9 -1.4,-3.8 -2.1,-5.7c-1.69,2.1 -2.99,4.4 -3.89,6.9c2.79,2.9 5.09,6 6.99,9.2l5.59,0l0,-0.1z" fill="#018EDE" id="svg_102"/>
  <path d="m190.3,366.2c0,-0.8 0,-1.6 0,-2.5c0.1,-4.6 0.49,-9.2 1.09,-13.9c0.3,-2.3 0.6,-4.6 1.2,-7c0.2,-1.1 0.5,-2.2 0.8,-3.2c-0.6,0.2 -1.2,0.4 -1.9,0.6c-0.1,0.4 -0.2,0.7 -0.3,1.1c-2.29,8.3 -3.59,16.6 -3.79,24.9l2.9,0z" fill="#A0DBDB" id="svg_103"/>
  <path d="m196.58,366.2c0.2,-9.1 0,-18.1 -0.7,-27.1c-0.39,0.1 -0.69,0.2 -1.09,0.2c-0.2,1.5 -0.3,3.1 -0.5,4.6c-0.3,2.5 -0.6,5 -0.8,7.6c-0.4,4.9 -0.6,9.9 -0.6,14.8l3.69,0l0,-0.1z" fill="#A0DBDB" id="svg_104"/>
  <path d="m220.44,366.2c3.29,-4.4 7.08,-8.6 11.37,-12.7c-0.3,-0.5 -0.6,-1 -0.9,-1.4c-0.99,1.1 -1.99,2.3 -3.19,3.2c-0.2,0.2 -0.6,0 -0.6,-0.2c0.5,-1.4 1.8,-2.9 3,-4.1c0,0 0,0 0.1,-0.1c-0.4,-0.6 -0.8,-1.1 -1.3,-1.6c-0.2,0.3 -0.4,0.7 -0.6,1c-1.6,2.5 -2.99,5 -4.69,7.4c-0.3,0.4 -1.1,0.3 -1,-0.1c1,-3.3 2.7,-6.7 4.79,-10c-0.9,-0.9 -1.89,-1.8 -2.99,-2.6c-2.5,7.1 -4.79,14.1 -6.99,21.2l3,0z" fill="#018EDE" id="svg_105"/>
  <path d="m198.28,366.2l5.79,0c3.79,-8.4 8.28,-16.8 13.57,-25c-1,-0.4 -1.99,-0.8 -2.99,-1.1c-0.2,0.3 -0.4,0.6 -0.6,0.9c-1.9,2.9 -3.69,5.8 -5.29,8.7c-1.6,3 -2.89,6.1 -4.79,9c-0.3,0.4 -1.2,0.3 -1.1,-0.1c0.5,-3 2,-6.2 3.49,-9.2c1.5,-3 3.1,-6 4.99,-9c0.2,-0.4 0.5,-0.7 0.7,-1.1c-1,-0.2 -1.89,-0.4 -2.89,-0.6c-0.3,1 -0.6,2 -0.9,2.9c-0.1,0.4 -1,0.5 -1.1,0.1c-0.1,-1.1 0,-2.2 0.3,-3.3c-0.9,-0.1 -1.7,-0.2 -2.59,-0.2c-1.2,4 -2.1,7.9 -3.1,11.9c-0.1,0.5 -1.09,0.5 -1.09,0c0.1,-4 0.79,-8 1.89,-12c-1.69,0 -3.49,0.2 -5.09,0.4c0.1,0.9 0.1,1.9 0.2,2.8c0.6,8.5 0.8,16.7 0.6,24.9z" fill="#018EDE" id="svg_106"/>
  <path d="m234.71,366.2c0,-0.5 0.1,-1 0.1,-1.5c0,-0.5 0,-1 -0.1,-1.5c-1.2,1 -2.4,2 -3.5,3l3.5,0z" fill="#A0DBDB" id="svg_107"/>
  <path d="m228.22,366.2c1.9,-1.9 3.99,-3.7 6.09,-5.4c-0.2,-0.9 -0.4,-1.7 -0.6,-2.6c-0.6,0.5 -1.1,1.1 -1.7,1.6c-1.1,1.1 -2.09,2.6 -3.59,3.5c-0.2,0.1 -0.4,0 -0.4,-0.1c0.2,-1.3 1.6,-2.6 2.6,-3.7c0.79,-0.9 1.69,-1.9 2.59,-2.8c-0.2,-0.4 -0.3,-0.8 -0.5,-1.2c-3.49,3.5 -6.68,7 -9.58,10.7l5.09,0z" fill="#A0DBDB" id="svg_108"/>
  <path d="m178.82,366.2c-1.7,-2.8 -3.59,-5.5 -5.89,-8c-0.3,1.1 -0.6,2.2 -0.7,3.4c1.5,1.4 2.8,3 3.7,4.6l2.89,0z" fill="#A0DBDB" id="svg_109"/>
  <path d="m174.83,366.2c-0.9,-0.8 -1.9,-1.6 -2.8,-2.4c0,0.3 0,0.7 0,1c0,0.5 0,0.9 0,1.4l2.8,0z" fill="#A0DBDB" id="svg_110"/>
  <path d="m209.66,366.2c0.7,-1.8 1.4,-3.6 2.19,-5.4c1.5,-3.6 3.2,-7.3 4.99,-10.9c1.2,-2.4 2.3,-4.9 3.6,-7.4c-0.2,-0.1 -0.5,-0.3 -0.7,-0.4c-5.09,7.9 -9.38,15.9 -13.18,24l3.1,0l0,0.1z" fill="#A0DBDB" id="svg_111"/>
  <path d="m214.75,366.2c2.39,-7.6 4.79,-15.1 7.48,-22.7c-0.2,-0.2 -0.5,-0.3 -0.8,-0.5c-0.4,0.7 -0.79,1.5 -1.09,2.2c-1,2 -2,4 -2.9,6c-2.29,4.9 -4.29,9.9 -6.09,14.8l3.4,0l0,0.2z" fill="#A0DBDB" id="svg_112"/>
 </g>
</svg>